<svg id="ic-person" viewBox="0 0 20 20" xmlns="http://www.w3.org/2000/svg">
        <circle fill="#007AFF" cx="12.3" cy="13.4" r=".8"></circle>
        <circle fill="#007AFF" cx="12.3" cy="15.5" r=".8"></circle>
        <path fill="#007AFF" d="M17.8 15.9L16.6 11c0-.2-.2-.3-.4-.4l-3.1-1.1-.4-.2c.6-.7.9-1.5.9-2.4v-3c0-2-1.6-3.6-3.6-3.6S6.4 1.9 6.4 3.9v3c0 .9.3 1.7.9 2.4l-.5.2-3.1 1.1c-.2.1-.3.2-.4.4l-1.1 4.9c-.1.3.1.5.3.7l7.2 3.1h.4l7.2-3.1c.4-.1.6-.4.5-.7zM7.5 3.9c0-1.4 1.1-2.5 2.5-2.5.9 0 1.7.5 2.1 1.2-1.6 1.3-3.3 1.7-4.6 1.6v-.3zm0 1.4c1.5.2 3.3-.3 4.9-1.6v3.2c0 .9-.4 1.7-1.2 2.1-.1.1-.2.3-.2.6 0 .2.2.4.4.5l.5.2c-.5.3-1.2.5-1.9.5s-1.4-.2-1.9-.5l.5-.3c.2 0 .3-.2.4-.4 0-.3-.1-.5-.3-.6-.7-.4-1.2-1.2-1.2-2.1V5.3zM10 18.6l-6.6-2.8 1-4.2 2.5-.9c.6.6 1.5 1 2.6 1.1v3.9c0 .3.3.6.6.6s.6-.3.6-.6v-3.9c1-.1 1.9-.5 2.6-1.1l2.5.9 1 4.2-6.8 2.8z"></path>
    </svg>