<svg viewBox="0 0 20 20" xmlns="http://www.w3.org/2000/svg"><path fill="#007AFF" d="M19.1 8.9h-.5l-1.4-2.6c-.1-.2-.3-.3-.5-.3h-3.3V4.3c0-.3-.3-.6-.6-.6H.9c-.4 0-.6.3-.6.6V14c0 .3.3.6.6.6h1.3c.3 1 1.1 1.7 2.2 1.7s1.9-.7 2.2-1.7h7.3c.3 1 1.1 1.7 2.2 1.7 1 0 1.9-.7 2.2-1.7h.9c.3 0 .6-.3.6-.6V9.5c0-.3-.3-.6-.7-.6zm-2.8-1.7l.9 1.7h-3.8V7.2h2.9zM1.5 5h10.7v8.4H6.5c-.3-.9-1.1-1.6-2.1-1.6s-1.9.7-2.1 1.6h-.8V5zm2.9 10c-.5 0-1-.4-1-1 0-.5.4-1 1-1 .5 0 1 .4 1 1s-.5 1-1 1zM16 15c-.5 0-1-.4-1-1 0-.5.4-1 1-1 .5 0 1 .4 1 1s-.4 1-1 1zm2.5-1.6h-.3c-.3-.9-1.1-1.6-2.1-1.6s-1.9.7-2.1 1.6h-.5v-3.2h5.1v3.2z"/></svg>